<?xml version="1.0" standalone="no"?>
<!DOCTYPE svg PUBLIC "-//W3C//DTD SVG 20010904//EN"
 "http://www.w3.org/TR/2001/REC-SVG-20010904/DTD/svg10.dtd">
<svg version="1.0" xmlns="http://www.w3.org/2000/svg"
 width="512.000000pt" height="512.000000pt" viewBox="0 0 512.000000 512.000000"
 preserveAspectRatio="xMidYMid meet">

<g transform="translate(0.000000,512.000000) scale(0.100000,-0.100000)"
fill="#000000" stroke="none">
<path d="M2424 5055 c-22 -34 -14 -51 75 -147 39 -42 71 -78 71 -81 0 -2 -60
-7 -132 -10 -296 -15 -602 -90 -869 -214 l-99 -46 0 -58 c0 -33 2 -59 4 -59 1
0 45 20 97 44 284 132 570 203 889 221 l115 6 -92 -88 c-51 -49 -93 -96 -93
-104 0 -28 30 -59 58 -59 39 0 322 262 322 298 0 24 -31 60 -222 265 -62 66
-96 74 -124 32z"/>
<path d="M3141 4714 c-19 -24 -19 -45 2 -71 5 -7 41 -22 81 -34 584 -174 1101
-614 1376 -1174 310 -630 314 -1362 10 -1990 -86 -178 -82 -177 -109 -54 -13
57 -29 114 -37 127 -20 31 -68 30 -90 -3 -15 -23 -13 -34 21 -182 52 -227 54
-232 78 -248 20 -13 41 -10 215 30 106 24 199 49 207 55 33 27 6 100 -37 100
-9 0 -63 -11 -119 -24 -57 -14 -104 -24 -106 -23 -1 1 32 69 72 151 236 474
305 1025 194 1556 -158 765 -716 1428 -1446 1719 -97 38 -259 91 -280 91 -6 0
-21 -12 -32 -26z"/>
<path d="M2303 4090 c-42 -25 -46 -35 -87 -185 -19 -70 -36 -128 -38 -129 -2
-2 -39 -15 -83 -30 -44 -16 -111 -44 -148 -63 l-69 -34 -116 66 c-159 90 -188
94 -257 34 l-35 -31 0 -644 0 -644 55 0 55 0 0 39 c0 59 27 198 53 276 50 146
123 262 236 376 126 126 271 209 451 257 131 34 333 36 463 4 419 -104 711
-445 752 -879 l7 -73 349 0 349 0 0 120 0 120 -32 35 c-29 29 -50 39 -162 69
-71 19 -132 39 -136 43 -4 4 -19 42 -34 83 -14 42 -42 106 -61 144 l-34 68 69
121 c56 96 70 129 70 162 0 53 -13 69 -201 253 -183 178 -174 176 -356 72
l-121 -70 -79 39 c-43 21 -109 49 -148 61 -38 13 -71 24 -73 25 -2 1 -18 58
-36 127 -39 146 -47 163 -89 188 -29 18 -52 20 -257 20 -205 0 -228 -2 -257
-20z"/>
<path d="M2424 3096 c-296 -68 -506 -303 -540 -606 l-7 -60 682 0 681 0 0 30
c0 59 -32 186 -64 255 -110 236 -329 380 -591 391 -64 2 -122 -1 -161 -10z"/>
<path d="M2070 2133 l0 -178 -148 -39 c-81 -21 -161 -43 -178 -48 -46 -12 -54
-41 -54 -196 l0 -137 55 3 55 4 0 113 c0 100 2 114 18 119 9 2 89 24 177 47
88 23 166 46 173 52 9 7 12 64 12 223 l0 214 -55 0 -55 0 0 -177z"/>
<path d="M2500 1835 l0 -475 60 0 60 0 0 475 0 475 -60 0 -60 0 0 -475z"/>
<path d="M2940 2096 c0 -159 3 -216 13 -224 6 -5 82 -29 167 -51 85 -23 163
-44 173 -47 15 -5 17 -20 17 -122 l0 -117 60 0 60 0 0 145 c0 105 -4 151 -13
164 -9 12 -73 34 -188 66 l-174 47 -3 177 -2 176 -55 0 -55 0 0 -214z"/>
<path d="M1690 1401 c-51 -16 -89 -42 -123 -81 -94 -110 -67 -278 57 -355 44
-27 58 -30 126 -30 68 0 82 3 126 30 157 97 147 332 -18 416 -45 23 -129 33
-168 20z"/>
<path d="M3289 1396 c-134 -47 -196 -201 -135 -331 41 -88 118 -137 216 -137
140 0 239 99 240 240 0 170 -162 285 -321 228z"/>
<path d="M2454 1206 c-163 -76 -181 -309 -31 -412 159 -110 377 3 377 195 0
181 -180 294 -346 217z"/>
<path d="M4093 749 c-683 -624 -1671 -772 -2517 -375 -54 25 -101 46 -102 46
-2 0 -4 -26 -4 -59 l0 -58 102 -48 c580 -270 1281 -285 1888 -40 251 101 494
253 709 444 84 75 99 102 76 137 -29 44 -65 33 -152 -47z"/>
</g>
</svg>
